<svg version="1.1" id="Layer_1" xmlns="http://www.w3.org/2000/svg" xmlns:xlink="http://www.w3.org/1999/xlink" x="0px" y="0px"
	 width="100%" viewBox="0 0 800 800" enable-background="new 0 0 800 800" xml:space="preserve">
<path fill="#000000" opacity="1.000000" stroke="none" 
	d="
M373.531342,1.000000 
	C368.791534,3.713681 362.997986,2.549173 357.517029,3.230605 
	C337.608368,5.705783 317.911896,9.085170 298.536102,14.317488 
	C280.115387,19.291880 262.066895,25.314520 244.474884,32.739758 
	C227.153595,40.050743 210.488449,48.603580 194.450272,58.393063 
	C175.614471,69.890190 157.747086,82.665581 140.976486,97.084801 
	C129.998459,106.523636 119.260750,116.199585 109.502174,126.819427 
	C88.248398,149.949005 69.401749,174.895508 53.833549,202.302673 
	C39.345997,227.807404 27.473476,254.401489 18.849382,282.411987 
	C12.021202,304.589447 6.727241,327.127289 4.286829,350.267395 
	C3.474312,357.971710 2.462627,365.654999 1.270997,373.673950 
	C1.000000,249.739594 1.000000,125.479179 1.000000,1.000000 
	C125.020805,1.000000 249.041748,1.000000 373.531342,1.000000 
z"/>
<path fill="#000000" opacity="1.000000" stroke="none" 
	d="
M1.000000,428.468658 
	C3.890460,432.668243 2.574133,438.054779 3.083304,443.006317 
	C7.567889,486.617493 19.248514,528.153503 37.475853,567.957275 
	C50.812290,597.080566 67.610062,624.012817 87.360649,649.211853 
	C102.465485,668.483459 119.155983,686.264893 137.587173,702.263672 
	C160.926239,722.522583 186.293442,739.950439 213.680206,754.496765 
	C242.411804,769.757385 272.530212,781.277283 303.966003,789.259277 
	C322.071564,793.856567 340.481476,797.129456 359.157593,798.909180 
	C363.867035,799.357910 368.786591,798.657776 373.687134,800.710083 
	C249.739594,801.000000 125.479179,801.000000 1.000000,801.000000 
	C1.000000,676.979187 1.000000,552.958252 1.000000,428.468658 
z"/>
<path fill="#000000" opacity="1.000000" stroke="none" 
	d="
M428.468658,801.000000 
	C432.466461,797.993652 437.722412,799.409241 442.487305,798.942871 
	C483.801788,794.899231 523.280090,784.023315 561.271545,767.671021 
	C587.110901,756.549255 611.374756,742.535889 634.216187,726.032471 
	C646.877014,716.884705 658.721802,706.834595 670.464661,696.556702 
	C688.027954,681.184265 703.007202,663.602051 717.515686,645.447388 
	C734.601318,624.067932 748.707336,600.850159 760.663208,576.380371 
	C777.869263,541.165405 789.649414,504.140167 795.816040,465.340179 
	C797.714355,453.396332 798.919434,441.402496 800.617676,429.202789 
	C801.000000,552.927185 801.000000,676.854309 801.000000,801.000000 
	C676.979187,801.000000 552.958252,801.000000 428.468658,801.000000 
z"/>
<path fill="#000000" opacity="1.000000" stroke="none" 
	d="
M801.000000,373.531342 
	C798.114441,369.317047 799.460510,363.930115 798.936646,358.961609 
	C794.342407,315.387848 782.845520,273.796814 764.605164,233.998917 
	C750.211792,202.594604 732.045349,173.604385 710.023926,146.973907 
	C699.524536,134.277039 688.649231,121.931961 676.591309,110.731186 
	C651.204712,87.149178 623.526489,66.705696 593.055420,50.024139 
	C569.374390,37.059849 544.702332,26.561613 518.937256,18.665363 
	C497.075226,11.965261 474.849274,6.770208 452.055939,4.307904 
	C444.502106,3.491882 436.954437,2.618397 429.201965,1.385592 
	C552.927124,1.000000 676.854309,1.000000 801.000000,1.000000 
	C801.000000,125.020805 801.000000,249.041748 801.000000,373.531342 
z"/>
<path fill="#000000" opacity="1.000000" stroke="none" 
	d="
M510.999939,249.350311 
	C495.837036,249.349762 481.174164,249.369003 466.511353,249.338882 
	C460.070282,249.325638 456.683105,246.178482 456.660217,240.328171 
	C456.636078,234.157013 460.136902,230.666412 466.495056,230.661987 
	C491.821808,230.644379 517.149414,230.552048 542.474609,230.755722 
	C547.222168,230.793900 549.024719,229.478745 548.751160,224.576706 
	C548.380371,217.932297 548.562378,211.250107 548.696716,204.587936 
	C548.749573,201.966568 547.990784,200.468033 545.214111,200.251328 
	C542.566833,200.044693 539.930054,199.425812 537.290710,199.438217 
	C513.971130,199.547729 490.644897,200.182098 467.335114,199.792770 
	C451.031189,199.520462 434.746552,200.510193 418.422485,199.786591 
	C412.114319,199.506958 405.590759,201.168793 399.073090,200.803421 
	C396.654053,200.667816 395.433838,202.134003 395.404327,204.553177 
	C395.386078,206.052582 395.354767,207.552002 395.354797,209.051422 
	C395.356659,302.527069 395.402405,396.002777 395.274445,489.478241 
	C395.265747,495.832367 397.343445,502.128418 395.398651,508.566223 
	C394.164490,512.651611 390.279388,515.601624 385.268097,515.322937 
	C380.717255,515.069885 376.947144,511.573883 376.683655,507.318909 
	C376.611694,506.156616 376.653839,504.986908 376.653839,503.820587 
	C376.653625,400.014191 376.733093,296.207611 376.503082,192.401749 
	C376.485046,184.262100 380.829041,180.473770 388.456665,180.511475 
	C444.274139,180.787430 500.094788,180.841064 555.911316,180.480896 
	C564.946533,180.422592 568.883545,186.034058 569.143005,193.519104 
	C569.650574,208.164368 569.979187,222.882721 569.059265,237.487488 
	C568.427979,247.509247 565.266418,249.703476 556.984375,249.473648 
	C541.833374,249.053223 526.662537,249.351501 510.999939,249.350311 
z"/>
<path fill="#000000" opacity="1.000000" stroke="none" 
	d="
M449.121277,279.000000 
	C449.185364,353.303711 449.219360,427.107483 449.381256,500.910980 
	C449.391785,505.706909 448.069550,509.593658 444.768921,512.977295 
	C441.928955,515.888733 438.370728,516.076538 435.081421,514.829468 
	C431.597748,513.508789 428.964417,510.798706 428.703857,506.658844 
	C428.578461,504.666931 428.652527,502.661896 428.652496,500.662781 
	C428.651123,419.361450 428.652283,338.060120 428.650726,256.758789 
	C428.650574,249.374832 428.643158,249.372849 421.167114,249.360641 
	C416.502319,249.353027 411.836365,249.288696 407.173096,249.371048 
	C404.020905,249.426712 402.709381,248.097900 402.729218,244.885544 
	C402.834686,227.807068 401.043732,230.947067 416.017151,230.676086 
	C422.679016,230.555527 429.422760,231.301575 435.990112,230.505432 
	C445.112732,229.399490 449.067627,237.066498 449.175781,244.015381 
	C449.354614,255.507187 449.158875,267.004822 449.121277,279.000000 
z"/>
<path fill="#000000" opacity="1.000000" stroke="none" 
	d="
M281.415009,230.639999 
	C308.674774,230.649109 335.483337,230.650009 362.291901,230.659317 
	C369.315887,230.661743 369.315887,230.673737 369.347626,237.409607 
	C369.404144,249.402054 369.404175,249.373886 357.564758,249.366989 
	C327.592438,249.349518 297.620148,249.367905 267.647827,249.353577 
	C259.767487,249.349808 256.669312,246.194031 256.658234,238.162216 
	C256.637360,223.009583 256.798248,207.854904 256.590912,192.705093 
	C256.493134,185.560501 261.189911,180.360413 268.722076,180.476410 
	C298.187836,180.930283 327.665161,180.742477 357.137146,180.588959 
	C362.712189,180.559906 365.157135,183.935226 366.911835,188.158478 
	C368.455597,191.874023 366.434479,195.138657 363.832153,197.427841 
	C360.661926,200.216553 356.453857,201.047195 352.262695,200.949768 
	C340.477051,200.675735 328.658936,200.700165 316.921112,199.762283 
	C303.877014,198.720062 291.057373,200.712906 277.406097,201.160172 
	C277.406097,210.252335 277.371918,219.177658 277.429810,228.102356 
	C277.444519,230.370575 279.176178,230.636108 281.415009,230.639999 
z"/>
<path fill="#000000" opacity="1.000000" stroke="none" 
	d="
M459.569885,602.903442 
	C459.199036,608.139832 459.073517,612.899658 461.410126,617.401367 
	C462.915253,620.301147 468.809296,621.983398 472.431641,620.331665 
	C475.152100,619.091248 477.628845,612.861816 476.258820,610.350586 
	C474.326447,606.808472 470.326019,607.997803 467.367065,606.758423 
	C467.170807,606.254944 466.887909,605.810059 466.829163,605.337341 
	C465.549957,595.042847 465.906891,594.641235 476.198669,594.651794 
	C489.348602,594.665283 489.132202,594.670166 489.425323,607.728516 
	C489.621002,616.446228 489.148346,624.561768 481.364349,630.426147 
	C470.379639,638.701965 452.715332,634.322876 448.307251,621.226624 
	C446.682678,616.399963 446.773651,611.823730 446.693939,607.093750 
	C446.542358,598.098206 446.399658,589.089355 446.720703,580.102722 
	C447.053528,570.785278 450.273193,562.620483 459.980225,559.648743 
	C467.549713,557.331482 475.546570,557.294861 482.143860,562.741455 
	C488.350311,567.865356 490.148041,574.913757 489.266296,582.758850 
	C489.088470,584.340759 488.363617,585.213074 486.757324,585.257690 
	C485.092438,585.304016 483.411652,585.184509 481.764252,585.371216 
	C477.874695,585.812073 476.554504,584.245300 476.554230,580.300171 
	C476.553741,573.569885 470.162811,569.134705 464.680115,571.880859 
	C460.391602,574.028748 459.992126,578.535095 459.751831,582.539795 
	C459.354095,589.167969 459.621033,595.835999 459.569885,602.903442 
z"/>
<path fill="#000000" opacity="1.000000" stroke="none" 
	d="
M376.762268,570.181885 
	C381.711670,555.270691 405.528595,555.768066 412.541351,564.823364 
	C416.759338,570.269897 417.961395,576.316223 417.230377,582.958496 
	C417.048065,584.614807 416.024353,585.220032 414.528442,585.266479 
	C412.863495,585.318298 411.184326,585.197388 409.533783,585.368469 
	C405.892273,585.745972 404.267944,584.338501 404.628815,580.565125 
	C405.048553,576.176270 402.794922,572.978455 398.901947,571.674194 
	C395.769653,570.624756 392.147461,570.764465 389.886749,574.034424 
	C388.060760,576.675659 389.241516,582.825195 391.856995,584.973938 
	C397.071381,589.257812 403.162079,592.221069 408.611816,596.218262 
	C420.367004,604.840210 421.040100,624.132568 407.276825,631.912170 
	C396.098267,638.230896 380.220154,633.758789 376.478119,621.053284 
	C375.927826,619.184875 374.682373,617.640930 374.602356,615.482544 
	C374.295197,607.201111 375.298218,606.212585 383.510071,606.639648 
	C389.378204,606.944702 388.384125,611.966492 389.017792,615.147034 
	C389.850800,619.328186 391.690582,620.546204 395.669250,620.783508 
	C399.967285,621.039673 402.928436,619.505066 404.300873,615.705872 
	C405.624542,612.041626 403.176056,609.182617 400.593506,607.199890 
	C396.681427,604.196472 392.309570,601.793457 388.143677,599.118774 
	C380.286499,594.074036 374.378418,587.884338 374.576080,577.639099 
	C374.628082,574.945618 376.685303,573.120605 376.762268,570.181885 
z"/>
<path fill="#000000" opacity="1.000000" stroke="none" 
	d="
M547.366028,568.666504 
	C549.342651,576.711243 549.880920,584.626953 551.640381,592.199097 
	C553.786316,601.434631 554.046143,610.987671 557.010498,620.055969 
	C558.128906,623.477417 556.778625,627.375427 558.315613,630.875122 
	C558.471619,631.230286 558.279785,632.041138 557.979431,632.247070 
	C554.960632,634.317505 551.544861,633.060181 548.302490,633.254150 
	C546.456177,633.364502 544.854431,632.513184 544.844055,630.471802 
	C544.824951,626.703430 542.570862,625.566284 539.398193,625.451721 
	C535.825745,625.322815 532.024292,624.449402 530.038086,629.008301 
	C529.400696,630.471313 529.916748,633.116089 527.263489,633.183655 
	C524.281982,633.259583 521.050537,633.770386 518.374207,632.826294 
	C515.425354,631.786072 516.544495,628.541504 517.175354,626.272705 
	C518.889771,620.106934 519.261169,613.687317 520.783020,607.532593 
	C522.279724,601.479919 522.446228,595.262085 523.988831,589.196838 
	C525.181335,584.508301 526.326477,579.528015 526.408569,574.722900 
	C526.484558,570.270081 528.673096,566.475464 528.761597,562.188293 
	C528.791016,560.761902 530.097717,560.215393 531.047974,559.779724 
	C535.329285,557.816528 539.921814,557.952820 544.105957,559.550720 
	C547.841797,560.977417 547.474121,564.863770 547.366028,568.666504 
M540.666077,605.237732 
	C541.596741,599.718628 537.877625,594.987061 538.455444,589.351562 
	C534.650696,594.133484 536.062622,599.689087 534.725708,604.622253 
	C534.035217,607.169861 532.060852,609.892822 534.296021,611.900818 
	C536.184204,613.597107 539.205505,613.012451 541.830078,612.015991 
	C541.419128,609.894836 541.050110,607.990051 540.666077,605.237732 
z"/>
<path fill="#000000" opacity="1.000000" stroke="none" 
	d="
M229.751678,585.253174 
	C230.713882,586.753784 231.318863,587.916687 231.300598,589.323547 
	C231.165253,599.746643 235.155365,609.589172 235.607544,619.975769 
	C235.735672,622.918945 237.550552,625.807556 237.404831,629.084229 
	C237.279129,631.910828 236.536133,633.466980 233.400711,633.344666 
	C229.262650,633.183105 225.280914,634.437073 223.837875,627.890930 
	C222.891373,623.597290 217.204544,625.646118 213.553894,625.442932 
	C210.691849,625.283630 209.724564,627.090637 209.224762,629.805054 
	C208.184921,635.452576 203.489731,632.816650 200.258896,633.248901 
	C196.866486,633.702698 196.469894,631.238892 196.700790,628.717224 
	C197.267075,622.532471 198.269836,616.398376 200.063202,610.455017 
	C201.351715,606.184937 201.257629,601.681946 202.018524,597.370667 
	C203.000931,591.804077 203.925797,586.018982 204.933502,580.431763 
	C205.974777,574.658386 205.950317,568.688843 207.842133,563.047485 
	C208.971649,559.679260 211.092224,558.628723 214.565125,558.603699 
	C225.786560,558.523010 226.761444,559.514465 227.443512,570.795898 
	C227.727844,575.498657 230.010040,579.981323 229.751678,585.253174 
M219.928467,601.456665 
	C216.964828,598.110657 220.601593,592.756226 216.240662,589.630310 
	C216.281006,596.491760 212.630844,602.611206 213.256409,609.462036 
	C213.468552,611.785400 214.368942,612.720581 216.621368,612.703552 
	C218.772156,612.687317 220.737900,612.566345 220.634491,609.661194 
	C220.546295,607.183533 220.430496,604.706787 219.928467,601.456665 
z"/>
<path fill="#000000" opacity="1.000000" stroke="none" 
	d="
M685.341064,565.056580 
	C686.030090,570.057556 684.145142,571.655212 679.548645,571.565796 
	C675.429688,571.485596 671.297546,572.520020 667.157776,572.926270 
	C664.202087,573.216309 663.283569,574.796997 663.323181,577.609802 
	C663.510498,590.913818 661.892944,588.394287 673.946960,588.666687 
	C674.613220,588.681763 675.280151,588.668518 675.946777,588.670654 
	C682.728149,588.692871 685.686279,593.256287 683.133667,599.586487 
	C682.369629,601.481262 680.853271,601.281738 679.418762,601.308533 
	C675.586853,601.380005 671.747559,601.481934 667.921814,601.319641 
	C664.413879,601.170776 663.142517,602.695740 663.314148,606.090637 
	C663.490540,609.581482 663.450562,613.091614 663.325378,616.586792 
	C663.216125,619.635071 664.604004,620.748840 667.534424,620.682373 
	C672.031494,620.580383 676.534302,620.742065 681.032104,620.655579 
	C683.828796,620.601807 685.232056,621.448486 685.395447,624.588928 
	C685.836731,633.070618 685.742310,633.315552 677.293518,633.321289 
	C669.960754,633.326233 662.626038,633.213318 655.296204,633.358398 
	C651.852722,633.426575 650.604187,632.097412 650.618835,628.657349 
	C650.710449,607.159363 650.718140,585.660522 650.606262,564.162720 
	C650.585571,560.183533 652.347900,558.862915 656.035522,558.881165 
	C663.866760,558.919861 671.701843,558.907776 679.529236,558.694885 
	C683.804077,558.578613 685.798035,560.262512 685.341064,565.056580 
z"/>
<path fill="#000000" opacity="1.000000" stroke="none" 
	d="
M161.345428,607.000122 
	C161.330887,614.324158 161.081879,621.158386 161.376511,627.968994 
	C161.604279,633.234375 158.565994,633.359741 154.695358,633.397888 
	C150.875763,633.435547 148.496048,633.020264 148.574951,628.118225 
	C148.832047,612.144165 148.484985,596.160461 148.745682,580.186523 
	C148.826065,575.261414 147.684143,573.036560 142.298920,572.695557 
	C135.051132,572.236572 132.569901,569.562439 132.701721,564.467529 
	C132.794800,560.870117 134.610397,558.764221 138.168625,558.729187 
	C149.152405,558.620789 160.137909,558.682495 171.122742,558.693054 
	C173.340652,558.695129 175.416214,559.395020 175.178925,561.962036 
	C174.882980,565.163635 177.202744,569.033691 173.270874,571.445801 
	C171.246658,572.687683 168.931061,573.210449 166.554321,572.970154 
	C162.308395,572.540833 161.166351,574.535461 161.267288,578.539856 
	C161.502106,587.854614 161.343964,597.179382 161.345428,607.000122 
z"/>
<path fill="#000000" opacity="1.000000" stroke="none" 
	d="
M594.652588,619.990234 
	C594.651672,605.833069 594.509338,592.172302 594.734741,578.517639 
	C594.804321,574.298645 593.299805,572.714661 589.255981,573.127319 
	C588.102417,573.244934 586.924072,573.093323 585.760437,573.143372 
	C582.270630,573.293640 580.376770,571.889771 580.647949,568.156616 
	C580.756287,566.665283 580.746765,565.154968 580.655151,563.661621 
	C580.430481,559.998108 582.186340,558.615540 585.745178,558.650330 
	C595.904663,558.749756 606.065674,558.692444 616.226074,558.699341 
	C618.710938,558.701050 621.367737,559.038696 621.164368,562.190491 
	C620.943176,565.617981 623.527771,570.061218 618.238953,572.105042 
	C616.312134,572.849670 614.339844,573.086731 612.355835,572.946533 
	C608.408325,572.667664 607.232483,574.392456 607.274902,578.264771 
	C607.453613,594.586182 607.379395,610.910950 607.307556,627.234070 
	C607.298706,629.248230 608.245544,632.096130 605.498169,632.876038 
	C602.330078,633.775146 598.890503,633.896301 595.711670,632.638611 
	C594.539124,632.174683 594.721741,630.631531 594.703186,629.483093 
	C594.654724,626.485535 594.665588,623.487122 594.652588,619.990234 
z"/>
<path fill="#000000" opacity="1.000000" stroke="none" 
	d="
M314.650818,596.999878 
	C314.653259,585.686646 314.821991,574.869751 314.580994,564.061951 
	C314.477051,559.399536 316.630035,558.481628 320.659515,558.591736 
	C324.610504,558.699646 327.447906,559.166565 327.400543,564.216675 
	C327.246246,580.684570 327.342926,597.154846 327.351044,613.624207 
	C327.354492,620.636780 327.363525,620.639648 334.589142,620.661255 
	C338.082611,620.671692 341.582367,620.800110 345.067810,620.634033 
	C348.343170,620.477905 349.615875,621.890625 349.356079,625.057983 
	C349.234039,626.545532 349.241302,628.056152 349.338501,629.546570 
	C349.550903,632.803284 347.657196,633.380798 344.951080,633.359375 
	C336.467407,633.292053 327.980286,633.210693 319.499878,633.389893 
	C315.810303,633.467834 314.546326,632.091614 314.604340,628.441467 
	C314.768250,618.129944 314.655029,607.814087 314.650818,596.999878 
z"/>
<path fill="#000000" opacity="1.000000" stroke="none" 
	d="
M268.653564,571.037476 
	C268.653412,569.045044 268.644562,567.546143 268.655212,566.047424 
	C268.700073,559.747986 272.178436,557.215271 278.376587,558.829956 
	C281.474915,559.637024 281.336182,562.012329 281.338287,564.362427 
	C281.350555,578.184692 281.346832,592.006897 281.348083,605.829163 
	C281.348694,612.657043 281.355804,619.484863 281.346497,626.312744 
	C281.336945,633.337708 281.329773,633.337646 275.157532,633.331543 
	C268.761017,633.325195 268.663361,633.249573 268.658112,626.487122 
	C268.643860,608.168457 268.653595,589.849854 268.653564,571.037476 
z"/>
</svg>